<svg version="1.1" id="Layer_1" xmlns="http://www.w3.org/2000/svg" xmlns:xlink="http://www.w3.org/1999/xlink" x="0px" y="0px"
	 width="100%" viewBox="0 0 410 144" enable-background="new 0 0 410 144" xml:space="preserve">

<path fill="#58B792" opacity="1.000000" stroke="none" 
	d="
M341.468658,145.000000 
	C340.550018,144.336945 340.245300,143.309891 339.628876,143.063873 
	C322.841431,136.364120 314.790863,123.198715 311.979523,106.059700 
	C309.521881,91.076950 311.023041,76.762833 317.937408,62.989399 
	C328.010681,42.923367 350.740356,36.815693 369.424683,43.364559 
	C372.805084,44.549381 375.495331,47.714733 378.489594,49.985008 
	C379.954987,51.096100 381.386780,52.251446 383.802551,54.146839 
	C383.802551,36.421509 383.802551,20.050596 383.802551,2.999967 
	C392.877716,2.999967 401.470184,2.999967 410.531342,2.999984 
	C411.000000,49.354229 411.000000,95.708458 410.531342,142.531342 
	C401.823456,143.000015 393.584229,143.000015 384.905090,143.000015 
	C384.905090,139.684097 384.905090,136.950592 384.905090,134.164948 
	C383.799316,134.103989 382.941803,133.779434 382.516388,134.075562 
	C377.510315,137.559937 372.569000,141.137344 367.610626,144.690247 
	C367.740417,144.793503 367.870209,144.896744 368.000000,145.000000 
	C359.312439,145.000000 350.624878,145.000000 341.468658,145.000000 
M381.644287,110.821358 
	C382.214569,108.954453 382.894257,107.113121 383.337555,105.216530 
	C386.459259,91.860786 386.866302,78.997818 375.364014,68.940727 
	C366.772186,61.428432 351.647736,63.143288 344.833832,72.195679 
	C337.906525,81.398705 338.242950,91.781456 339.314148,101.994652 
	C340.199951,110.440590 344.890106,118.046059 353.302063,120.751991 
	C364.506714,124.356300 374.235870,122.465546 381.644287,110.821358 
z"/>
<path fill="#58B792" opacity="1.000000" stroke="none" 
	d="
M1.000000,113.468658 
	C11.097419,113.000000 21.194838,113.000000 31.644947,113.000000 
	C31.644947,122.978004 31.644947,132.689880 31.644947,142.630630 
	C21.701496,142.630630 11.789392,142.630630 1.438645,142.815308 
	C1.000000,133.312439 1.000000,123.624878 1.000000,113.468658 
z"/>
<path fill="#58B792" opacity="1.000000" stroke="none" 
	d="
M201.087891,42.998142 
	C206.076370,42.998161 210.594620,43.263248 215.066986,42.923725 
	C219.548737,42.583481 221.763672,43.882042 221.037781,48.703819 
	C220.845078,49.983883 221.116272,51.333778 221.189270,52.986382 
	C222.302872,52.740612 223.545242,52.854301 224.034912,52.301380 
	C235.012253,39.906525 248.584503,39.501930 263.552490,42.724365 
	C279.634827,46.186710 288.894409,63.119644 288.973053,77.598724 
	C289.080719,97.423241 288.999969,117.248779 289.000000,137.073883 
	C289.000000,138.871719 289.000000,140.669540 289.000000,142.724503 
	C279.974335,142.724503 271.376770,142.724503 262.000031,142.724503 
	C262.000031,141.053528 262.000031,139.305908 262.000031,137.558304 
	C262.000000,120.898560 262.361084,104.226387 261.788910,87.586319 
	C261.607574,82.312355 260.157318,76.251129 257.166107,72.066940 
	C249.473633,61.306545 228.909744,63.819233 223.192535,80.104797 
	C221.550018,84.783562 221.189331,90.075867 221.093887,95.103050 
	C220.825134,109.258728 220.999985,123.422836 220.999969,137.583618 
	C220.999969,139.214508 220.999969,140.845413 220.999969,142.728027 
	C211.967224,142.728027 203.369675,142.728027 194.384796,142.728027 
	C194.384796,109.746765 194.384796,76.705490 194.384796,42.998142 
	C196.404068,42.998142 198.500824,42.998142 201.087891,42.998142 
z"/>
<path fill="#58B792" opacity="1.000000" stroke="none" 
	d="
M93.000427,73.117050 
	C93.000420,96.556503 93.000420,119.510811 93.000420,142.731125 
	C83.625679,142.731125 74.693642,142.731125 65.203094,142.731125 
	C65.203094,117.731735 65.203094,92.679504 65.203094,67.073265 
	C59.276176,67.073265 53.876961,67.073265 48.249413,67.073265 
	C48.249413,58.919960 48.249413,51.321205 48.249413,43.161877 
	C53.635937,43.161877 59.028748,43.161877 64.423851,43.161877 
	C64.961037,37.744343 65.372986,32.869137 65.939339,28.011942 
	C67.710480,12.822225 78.546394,4.697382 92.697021,3.199468 
	C101.547684,2.262582 110.578224,3.025157 119.760742,3.025157 
	C119.760742,10.767774 119.760742,18.032681 119.760742,26.000147 
	C114.638199,26.000147 109.544525,25.997887 104.450859,26.000677 
	C96.750610,26.004894 93.037369,29.699583 93.001556,37.393082 
	C92.993881,39.042145 93.000435,40.691273 93.000435,42.881611 
	C101.322922,42.881611 109.392639,42.881611 117.723648,42.881611 
	C117.723648,51.021732 117.723648,58.620800 117.723648,66.782478 
	C109.756668,66.782478 101.693832,66.782478 93.000443,66.782478 
	C93.000443,69.099136 93.000443,70.865524 93.000427,73.117050 
z"/>
<path fill="#58B792" opacity="1.000000" stroke="none" 
	d="
M164.999741,56.024055 
	C164.979111,84.835159 164.959381,113.151024 164.925903,141.466873 
	C164.925552,141.771362 164.745529,142.075653 164.552032,142.688263 
	C155.594513,142.688263 146.548065,142.688263 137.001022,142.688263 
	C137.001022,140.901764 137.001007,139.283325 137.001007,137.664886 
	C137.001007,108.182129 137.129135,78.698288 136.880875,49.217617 
	C136.837082,44.016243 138.450577,42.542133 143.419617,42.903576 
	C149.053177,43.313362 154.744843,43.148098 160.400803,42.943474 
	C163.854477,42.818516 165.320557,44.004772 165.040375,47.536808 
	C164.830276,50.185219 164.999435,52.863716 164.999741,56.024055 
z"/>
<path fill="#58B792" opacity="1.000000" stroke="none" 
	d="
M166.000015,22.743809 
	C166.188263,25.989983 165.862198,28.114489 162.157074,28.044559 
	C154.019882,27.890978 145.877777,27.996935 137.369400,27.996935 
	C137.369400,19.721592 137.369400,11.678112 137.369400,3.314668 
	C146.725327,3.314668 156.099136,3.314668 166.000198,3.314668 
	C166.000198,9.722764 166.000198,15.997278 166.000015,22.743809 
z"/>

</svg>