<svg width="136" height="40" viewBox="0 0 136 40" fill="none" xmlns="http://www.w3.org/2000/svg" class="css-1o0g1cn e98xojf3"><path d="m49.7 13.8-4 4 2.9 2.7 2.7-2.8h14v4H49.7l-4 3.9v3.9l4 3.9h11.7l4-4H49.6v-3.8h15.6v7.8h4V17.7l-4-3.9H49.7Zm-25.2 3.9v11.8h-14l-2.7-2.8L5 29.5l4 3.9h15.5l4-4V13.9h-4v4Z" fill="white"></path><path d="M9 22.5v-4.8h15.5l-3.9-3.9H9l-3.9 4v4.7l4 4h11.6l4-4H8.8Zm106.4 3.1H127l3.9-4v-3.9l-4-3.9h-15.5l-4 4v11.7l4 3.9H127l3.9-4-2.8-2.7-2.7 2.8h-14v-4h3.9Zm-4-7.9h15.7v4h-15.6v-4ZM86.3 10V6h-7.8l-4 4v3.8h-3.8v4h3.9v15.6h3.9V17.7h3.9v-3.9h-4V10h7.9Z" fill="white"></path><path d="m91.6 6-4 4v3.8h-3.8v4h3.9v15.6h3.9V17.7h4v-3.9h-4V10h7.8V6h-7.8Zm9.2 27.4h4V6h-4v27.4ZM37.3 13.8 35.2 16v-2.2h-4v19.6h4V21.6l3.3-3.9h5.9v-3.9h-7.1Zm87.5-3.8h.4V6.4h1V6h-2.4v.4h1V10Zm2.7-2.2V6.6L129 10l1.5-3.3V10h.5V6h-.7L129 9l-1.3-3h-.7v4h.5V7.8Z" fill="white"></path></svg>