<svg viewBox="0 0 566.93 131.69" xml:space="preserve" xmlns="http://www.w3.org/2000/svg" focusable="false" class="chakra-icon css-wo2jct"><g id="design"><path d="M353.13 33.58h-40.98l-10.77 67.91h46.55c37.15 0 47.01-17.16 49.2-30.3.46-2.83.73-5.66.73-8.49 0-14.88-9.59-29.12-44.73-29.12zm22.36 35.23c-1.46 7.03-6.11 16.34-29.3 16.34H309.21l16.5-7.24 4.51-28.27h21.63c20.35 0 24.1 8.12 24.1 15.06 0 1.19-.18 2.56-.46 4.11zM459.54 33.58H432.8l-42.9 67.91h21.45l7.67-12.41h40.25v.01h14.54l-12.52 5.5 2.54 6.9h21.54l-25.83-67.91zm-31.03 40.16.02-.03H415.1l18.45-8.09 10.76-17.35 9.31 25.47h-25.11zM507.95 81.96l10.75-8.39 39.37-39.99h-24.19l-25 25.01-16.8-25.01h-24.64l28.93 41.62-4.2 26.29h20.72l3.12-19.53zM200.39 84.47l.04-.26h-11.95l12.85-5.64 7.18-45.13H187.8l-10.77 67.91h51.53l2.64-16.88zM150.64 33.44H123.9L81 101.35h21.45l7.67-12.41h40.25l.01.04h15.39l-13.25 5.82 2.41 6.55h13.3l2.42-15.28-20.01-52.63zM125 73.6h-18.66l18.23-8 10.83-17.47 9.31 25.47H125zM260.07 84.47l.04-.26h-11.96L261 78.57l7.19-45.13h-20.72l-10.77 67.91h46.66l2.65-16.88zM68.96 36.49c-2.49 1.79-7.26 4.23-13.39 2.71C44.94 36.59 41.9 27.43 41.9 27.43s-3.04 9.16-13.67 11.77c-6.14 1.51-10.9-.93-13.39-2.71h-1.92v49.37c0 1.25.31 3.71 2.33 6.17 2.5 3.04 6.74 5.01 12.61 5.86 4.67.68 8.12 2.14 10.56 4.49 1.79 1.72 3.49 4.71 3.49 4.71s1.76-3.04 3.49-4.71c2.44-2.34 5.89-3.81 10.56-4.49 5.86-.85 10.11-2.82 12.61-5.86 2.02-2.46 2.33-4.92 2.33-6.17V36.49h-1.94zm.18 49.37c0 1.61-.68 8.46-13.45 10.31-5.04.73-8.81 2.35-11.52 4.96-.97.94-1.71 1.89-2.28 2.76a15.8 15.8 0 0 0-2.28-2.76c-2.71-2.6-6.47-4.23-11.52-4.96-12.77-1.85-13.45-8.69-13.45-10.31V38.42s5.81 4.52 14 2.48c9.54-2.39 13.25-9.53 13.25-9.53s3.71 7.15 13.25 9.53c8.19 2.04 14-2.48 14-2.48v47.44z" fill="#fff"></path><path d="M65.94 85.86V61.01H17.85v24.85c0 .26-.33 5.44 10.71 7.15 9.63 1.49 13.34 6.05 13.34 6.05s3.7-4.57 13.34-6.06c11.03-1.7 10.7-6.88 10.7-7.14zM35.96 66.52l-1.41.83v24.11l-3.61-1.08-5.22-15.4v10.15l1.66 1.27v3.13l-7.25-1.84v-2.67l1.66-.65V67.36l-1.7-.84v-3.06h5.48l5.12 15.71V67.35l-1.48-.83v-3.06h6.75v3.06zm13.9 3.17h-2.74l-.83-2.56h-3.17v7.21h2.38l.94-1.37h1.91v6.42h-1.91l-.9-1.3h-2.42v11.88l1.45 1.73v3.06l-7.18-2.68v-2.6l1.58-.65V67.35l-1.58-.8v-3.1h12.46v6.24zm13.85 17.99-12.67 3.38V88l1.78-1.46V67.35l-1.52-.8v-3.1h7.19v3.1l-1.41.8v18l3.09-.83.59-4.72h2.95v7.88z" fill="#fff"></path><path d="m19.1 55.92-2.17-1.64h2.66l.88-2.52.88 2.52H24l-2.17 1.64.8 2.56-2.16-1.52-2.16 1.52.79-2.56zM28.54 55.92l-2.17-1.64h2.66l.88-2.52.88 2.52h2.66l-2.17 1.64.8 2.56-2.16-1.52-2.16 1.52.78-2.56zM19.1 47.41l-2.17-1.64h2.66l.88-2.52.88 2.52H24l-2.17 1.64.8 2.56-2.16-1.52-2.16 1.52.79-2.56zM28.54 47.41l-2.17-1.64h2.66l.88-2.52.88 2.52h2.66l-2.17 1.64.8 2.56-2.16-1.52-2.16 1.52.78-2.56zM65.49 58.48l-2.16-1.52-2.16 1.52.8-2.56-2.17-1.64h2.66l.88-2.52.88 2.52h2.66l-2.17 1.64.78 2.56zM56.06 58.48l-2.16-1.52-2.16 1.52.8-2.56-2.17-1.64h2.66l.88-2.52.88 2.52h2.66l-2.17 1.64.78 2.56zM65.49 49.96l-2.16-1.52-2.16 1.52.8-2.56-2.17-1.64h2.66l.88-2.52.88 2.52h2.66l-2.17 1.64.78 2.56zM56.06 49.96l-2.16-1.52-2.16 1.52.8-2.56-2.17-1.64h2.66l.88-2.52.88 2.52h2.66l-2.17 1.64.78 2.56zM48.31 41c-.07-.17-.2-.44-.42-.42 0 0-1.13.59-2.7 2.13.35.2.75.48.98.67-.24.21-.48.44-.71.65a7.372 7.372 0 0 0-2.91-1.47c.27-.2.56-.39.85-.58.44.11.87.29.87.29 1.78-1.35 3.31-1.94 3.31-1.94s-.18-.09-.65-.08c-6.98.09-13.41 5.3-12.2 14.22.13.95.5 2.67.96 3.42.16-1.48.71-4.77 2.37-8.29-.58-.21-1.05-.29-1.05-.29.17-.36.4-.81.4-.81 1.22.23 2.31.74 3.24 1.49-.23.36-.38.6-.48.79-.33-.26-.66-.48-1.03-.68-1.86 3.25-2.72 6.32-3.07 7.93.02.1.22.15.38.13 7.65-.99 11.23-4.89 12.32-9.12.73-2.78.5-5.68-.46-8.04zm-7 8a7.216 7.216 0 0 0-3.29-1.55s.35-.57.55-.87c1.39.28 2.52.93 3.31 1.6-.2.29-.4.56-.57.82zm1.26-1.76a7.48 7.48 0 0 0-3.32-1.61c.19-.25.42-.52.64-.77.97.17 2.22.68 3.3 1.58-.22.27-.43.54-.62.8zm1.4-1.69c-.97-.8-2.05-1.31-3.21-1.56.28-.26.57-.49.82-.7 1.44.35 2.41.99 3.07 1.54-.24.25-.47.48-.68.72z" fill="#fff"></path></g></svg>