<svg viewBox="0 0 1220 185" fill="none" xmlns="http://www.w3.org/2000/svg"><g clip-path="url(#a)" fill="#fff"><path d="M398.422 7.082c-7 3.859-11.844 10.756-14.636 20.855L348.891 153.62a25.525 25.525 0 0 0-.924 5.501 19.573 19.573 0 0 0 .534 5.604 23.591 23.591 0 0 0 12.049 14.636 48.386 48.386 0 0 0 23.79 5.378h98.918l11.228-40.397h-72.294a12.315 12.315 0 0 1-6.056-1.355 6.15 6.15 0 0 1-3.079-3.735 5.355 5.355 0 0 1-.123-1.417c.019-.451.088-.898.205-1.334l24.448-88.141a8.212 8.212 0 0 1 3.735-5.317 20.324 20.324 0 0 1 9.217-1.498h67.368l11.187-40.397h-94.422c-17.222 0-29.23 2.053-36.209 5.933M138.678 1.15l-37.831 136.378a8.042 8.042 0 0 1-3.715 5.317 20.374 20.374 0 0 1-9.217 1.498H77.18a12.312 12.312 0 0 1-6.055-1.355 6.022 6.022 0 0 1-3.059-3.735 4.682 4.682 0 0 1-.144-1.417c.02-.451.089-.898.206-1.334L105.65 1.149H43.229L.944 153.621a25.413 25.413 0 0 0-.903 5.501 18.846 18.846 0 0 0 .534 5.604 23.588 23.588 0 0 0 12.049 14.636 48.26 48.26 0 0 0 23.831 5.378H106.8c17.222 0 29.23-2.053 36.23-5.912 6.999-3.859 11.823-10.777 14.614-20.876L201.14 1.17l-62.462-.02ZM581.519 128.271h41.998c19.972 0 33.746-10.797 39.349-30.975l4.106-14.184c4.782-17.18-1.006-27.177-16.996-30.174l-36.148-5.994c-3.202-.595-4.392-2.791-3.407-6.158l2.196-8.21a6.156 6.156 0 0 1 6.158-4.783h21.574c3.202 0 4.392 1.786 3.592 4.783l-1.786 6.404h35.162l2.197-8.005C684.912 10.797 677.112.02 657.139.02h-40.068c-19.972 0-33.951 10.776-39.349 30.954L574.13 43.29c-4.803 17.386.985 27.362 17.181 30.174l35.962 6.158c3.182.41 4.578 2.607 3.592 6.158l-2.812 9.791a6.157 6.157 0 0 1-6.158 4.803H598.29c-3.203 0-4.598-1.806-3.593-4.803l2.607-9.196h-35.162l-2.997 10.797c-5.603 20.178 2.381 30.975 22.374 30.975M695.976 127.06h35.367l26.562-96.29h34.361l8.006-29.58H696.366l-7.985 29.58h34.156l-26.561 96.29ZM814.107 127.06l10.797-38.55h16.975l9.586 38.55h36.948L876.61 86.5a34.768 34.768 0 0 0 24.016-24.961l9.196-32.966c4.598-16.79-3.202-27.567-19.972-27.567h-76.339L778.616 127.06h35.491Zm26.684-96.475h28.183c2.997 0 4.106 1.806 3.387 4.988l-5.193 18.782a6.158 6.158 0 0 1-6.158 4.803h-28.122l7.903-28.573ZM937.697 127.06 972.469 1.19h-35.367l-34.751 125.87h35.346ZM996.445 127.06l13.585-48.936h17.98l14.78 49.141h36.77l-20.59-66.137 51.36-59.937h-39.76l-38.37 46.965h-13.98L1031.2 1.19h-35.351L961.077 127.06h35.368ZM1211.81 30.77 1220 1.19h-95.1l-34.77 125.87h95.1l8-29.764h-59.54l5.6-20.383h50.33l7.6-27.567h-50.34l5.2-18.577h59.73ZM534.821 184.74h634.359l7.84-28.122H542.662l-7.841 28.122ZM179.895 184.74h62.401l20.794-74.964h72.52l11.208-40.396H211.876l-31.981 115.36ZM365.743 1.15H230.801l-11.207 40.396h134.942l11.207-40.397Z"></path></g><defs><clipPath id="a"><path fill="#fff" d="M0 0h1220v184.74H0z"></path></clipPath></defs></svg>